# xmcd
#
# Track frame offsets:
#	150
#	9486
#	20741
#	34939
#	45866
#	60706
#	73519
#	84896
#	97277
#	112424
#	124761
#	136909
#	151320
#	164209
#	175776
#	190017
#	201827
#	214364
#	227067
#	239285
#	254991
#	269143
#	280067
#	290144
#	301565
#	314347
#	326642
#
# Disc length: 4549 seconds
#
# Revision: 1
# Processed by: cddbd v1.4PL0 Copyright (c) Steve Scherf et al.
# Submitted via: audiograbber 1.80
#
DISCID=9c11c31b
DTITLE=dick curless - Hard, Hard Traveling Man
DYEAR=1900
DGENRE=
TTITLE0=A Pinch O' Powder
TTITLE1=Big Wheel Cannonball 
TTITLE2=I Miss A Lot Of Trains 
TTITLE3=Six Days On The Road 
TTITLE4=A Tombstone Every Mile 
TTITLE5=Carter Boys 
TTITLE6=Hard, Hard Traveling Man 
TTITLE7=Long Lonesome Highway 
TTITLE8=Drop Some Silver In The Jukebox 
TTITLE9=Truck Stop 
TTITLE10=Goin' Down The Road Feeling Bad 
TTITLE11=Winter's Comin' On Again 
TTITLE12=Golden Girl 
TTITLE13=Drag 'Em Off The Interstate, Sock It To 'Em, 
TTITLE14=Please Buy My Flowers 
TTITLE15=Juke Box Man 
TTITLE16=Leaving It All Behind 
TTITLE17=Rocky Top 
TTITLE18=Juke Box Man 
TTITLE19=Watermelon Man 
TTITLE20=The Lonesome Road 
TTITLE21=Coastline Charlie 
TTITLE22=Waiting For A Train 
TTITLE23=Homing Pigeon 
TTITLE24=Come Sundown 
TTITLE25=Snap Your Fingers 
TTITLE26=Swingin' Preacher 
EXTD=
EXTT0=
EXTT1=
EXTT2=
EXTT3=
EXTT4=
EXTT5=
EXTT6=
EXTT7=
EXTT8=
EXTT9=
EXTT10=
EXTT11=
EXTT12=
EXTT13=
EXTT14=
EXTT15=
EXTT16=
EXTT17=
EXTT18=
EXTT19=
EXTT20=
EXTT21=
EXTT22=
EXTT23=
EXTT24=
EXTT25=
EXTT26=
PLAYORDER=
